<mxfile host="Electron" modified="2024-05-12T20:43:22.796Z" agent="Mozilla/5.0 (Windows NT 10.0; Win64; x64) AppleWebKit/537.36 (KHTML, like Gecko) draw.io/24.2.5 Chrome/120.0.6099.109 Electron/28.1.0 Safari/537.36" etag="BRu3qUlJZUSYqspU7Ruq" version="24.2.5" type="device">
  <diagram name="Pagina-1" id="QI2gKdlKlqPeXvp3Vsb9">
    <mxGraphModel dx="247" dy="144" grid="1" gridSize="10" guides="1" tooltips="1" connect="1" arrows="1" fold="1" page="1" pageScale="1" pageWidth="827" pageHeight="1169" math="0" shadow="0">
      <root>
        <mxCell id="0" />
        <mxCell id="1" parent="0" />
        <mxCell id="x3eR0U4iJhlZHQkagBph-1" value="&lt;font style=&quot;font-size: 9px;&quot;&gt;Descrizione&lt;/font&gt;" style="text;html=1;align=center;verticalAlign=middle;whiteSpace=wrap;rounded=0;" vertex="1" parent="1">
          <mxGeometry x="377.86999999999995" y="300" width="35" height="15" as="geometry" />
        </mxCell>
        <mxCell id="x3eR0U4iJhlZHQkagBph-2" value="&lt;font style=&quot;font-size: 9px;&quot;&gt;Nome&lt;/font&gt;" style="text;html=1;align=center;verticalAlign=middle;whiteSpace=wrap;rounded=0;" vertex="1" parent="1">
          <mxGeometry x="324.87" y="300" width="35" height="15" as="geometry" />
        </mxCell>
        <mxCell id="x3eR0U4iJhlZHQkagBph-3" value="" style="curved=1;endArrow=oval;html=1;rounded=0;endFill=1;" edge="1" parent="1">
          <mxGeometry width="50" height="50" relative="1" as="geometry">
            <mxPoint x="360.86999999999995" y="326" as="sourcePoint" />
            <mxPoint x="298.62" y="369" as="targetPoint" />
            <Array as="points">
              <mxPoint x="300.87" y="326" />
              <mxPoint x="298.62" y="375.6" />
            </Array>
          </mxGeometry>
        </mxCell>
        <mxCell id="x3eR0U4iJhlZHQkagBph-4" style="edgeStyle=orthogonalEdgeStyle;rounded=0;orthogonalLoop=1;jettySize=auto;html=1;exitX=0.75;exitY=0;exitDx=0;exitDy=0;endArrow=oval;endFill=0;" edge="1" parent="1">
          <mxGeometry relative="1" as="geometry">
            <mxPoint x="344.61999999999995" y="333.24" as="sourcePoint" />
            <mxPoint x="342.61999999999995" y="317.24" as="targetPoint" />
          </mxGeometry>
        </mxCell>
        <mxCell id="x3eR0U4iJhlZHQkagBph-5" style="edgeStyle=orthogonalEdgeStyle;rounded=0;orthogonalLoop=1;jettySize=auto;html=1;exitX=0.75;exitY=0;exitDx=0;exitDy=0;endArrow=oval;endFill=0;" edge="1" parent="1">
          <mxGeometry relative="1" as="geometry">
            <mxPoint x="394.61999999999995" y="333.25" as="sourcePoint" />
            <mxPoint x="392.61999999999995" y="317.25" as="targetPoint" />
          </mxGeometry>
        </mxCell>
        <mxCell id="x3eR0U4iJhlZHQkagBph-6" style="edgeStyle=orthogonalEdgeStyle;rounded=0;orthogonalLoop=1;jettySize=auto;html=1;exitX=1;exitY=0.5;exitDx=0;exitDy=0;endArrow=oval;endFill=0;" edge="1" parent="1">
          <mxGeometry relative="1" as="geometry">
            <mxPoint x="414.86999999999995" y="354.64" as="sourcePoint" />
            <mxPoint x="437.99000000000007" y="354.64" as="targetPoint" />
          </mxGeometry>
        </mxCell>
        <mxCell id="x3eR0U4iJhlZHQkagBph-7" value="&lt;font style=&quot;font-size: 8px;&quot;&gt;Numero&lt;/font&gt;&lt;div style=&quot;line-height: 60%;&quot;&gt;&lt;font style=&quot;font-size: 8px;&quot;&gt;Oggetti&lt;/font&gt;&lt;/div&gt;" style="text;html=1;align=center;verticalAlign=middle;whiteSpace=wrap;rounded=1;strokeColor=none;" vertex="1" parent="1">
          <mxGeometry x="418.62000000000006" y="328.68" width="40" height="18" as="geometry" />
        </mxCell>
        <mxCell id="x3eR0U4iJhlZHQkagBph-8" style="edgeStyle=orthogonalEdgeStyle;rounded=0;orthogonalLoop=1;jettySize=auto;html=1;endArrow=oval;endFill=0;" edge="1" parent="1">
          <mxGeometry relative="1" as="geometry">
            <mxPoint x="369.71999999999997" y="388.13" as="targetPoint" />
            <mxPoint x="369.71999999999997" y="358.13" as="sourcePoint" />
          </mxGeometry>
        </mxCell>
        <mxCell id="x3eR0U4iJhlZHQkagBph-9" value="&lt;font style=&quot;font-size: 8px;&quot;&gt;TIPO&lt;/font&gt;" style="text;html=1;align=center;verticalAlign=middle;whiteSpace=wrap;rounded=1;strokeColor=none;" vertex="1" parent="1">
          <mxGeometry x="349.87" y="387.90999999999997" width="40" height="17" as="geometry" />
        </mxCell>
        <mxCell id="x3eR0U4iJhlZHQkagBph-10" value="Collezione" style="whiteSpace=wrap;html=1;align=center;" vertex="1" parent="1">
          <mxGeometry x="324.87" y="333.25" width="90" height="28.75" as="geometry" />
        </mxCell>
        <mxCell id="x3eR0U4iJhlZHQkagBph-12" value="" style="endArrow=none;html=1;rounded=0;" edge="1" parent="1">
          <mxGeometry width="50" height="50" relative="1" as="geometry">
            <mxPoint x="284.87" y="347.57" as="sourcePoint" />
            <mxPoint x="324.87" y="347.57" as="targetPoint" />
          </mxGeometry>
        </mxCell>
      </root>
    </mxGraphModel>
  </diagram>
</mxfile>
